<?xml version="1.0" encoding="UTF-8"?>
<svg version="1.1" xmlns="http://www.w3.org/2000/svg" width="268" height="268">
<path d="M0 0 C88.44 0 176.88 0 268 0 C268 88.44 268 176.88 268 268 C179.56 268 91.12 268 0 268 C0 179.56 0 91.12 0 0 Z " fill="#FEFEFE" transform="translate(0,0)"/>
<path d="M0 0 C4.69516646 -0.27373157 9.38562289 -0.47227019 14.08691406 -0.60424805 C15.68213822 -0.6592836 17.27681443 -0.73415048 18.87011719 -0.82983398 C32.04671581 -1.60080518 32.04671581 -1.60080518 36.68554688 2.20092773 C38.76550326 5.03676231 40.39998485 7.8716392 42 11 C42.95159798 12.46829081 43.91882168 13.92665547 44.90625 15.37109375 C45.77383188 16.72464521 46.63841783 18.08012163 47.5 19.4375 C48.44598472 20.91316439 49.39260231 22.38842325 50.33984375 23.86328125 C50.79343262 24.57049316 51.24702148 25.27770508 51.71435547 26.00634766 C54.74842004 30.71127954 57.8806933 35.3513834 61 40 C66.52136653 48.23069962 71.98493016 56.49509218 77.375 64.8125 C83.96121815 74.97367862 90.67280035 85.0478835 97.41210938 95.10791016 C98.75482781 97.11299217 100.09642784 99.1188166 101.4375 101.125 C101.84959717 101.74044678 102.26169434 102.35589355 102.6862793 102.98999023 C104.85907856 106.24627893 106.96599628 109.53045744 109 112.875 C110.64780867 116.03735363 110.64780867 116.03735363 113 117 C113.25507324 116.29367432 113.51014648 115.58734863 113.77294922 114.85961914 C115.11580248 111.73012445 116.75790118 109.08863384 118.6328125 106.24609375 C119.71949219 104.5919043 119.71949219 104.5919043 120.828125 102.90429688 C121.59366932 101.74864447 122.35929458 100.59304568 123.125 99.4375 C123.86758971 98.30950947 124.60978041 97.18125616 125.3515625 96.05273438 C131.37471284 86.89969594 137.45924025 77.78726111 143.5625 68.6875 C147.54543086 62.71703165 151.45926737 56.70219332 155.375 50.6875 C160.80465862 42.34852281 166.27217348 34.03792038 171.81298828 25.77246094 C173.96415659 22.56030916 176.1064055 19.3422087 178.25 16.125 C179.41778523 14.37320104 180.58310956 12.62574321 181.79638672 10.9050293 C183.08878342 8.9753453 183.08878342 8.9753453 184.02001953 6.57348633 C185.40942973 3.675891 186.46973243 2.00933013 189 0 C194.82328075 -1.13609848 200.47551786 -0.84923864 206.375 -0.5625 C207.98556569 -0.51732125 209.59625255 -0.47626251 211.20703125 -0.43945312 C215.14102423 -0.34059804 219.06918014 -0.18553571 223 0 C219.99996705 5.54907541 216.86401446 10.9121986 213.3125 16.125 C212.5375399 17.27328871 211.76281475 18.421736 210.98828125 19.5703125 C210.54282959 20.22902344 210.09737793 20.88773438 209.63842773 21.56640625 C207.10287418 25.33252127 204.58815556 29.11250928 202.07104492 32.89096069 C199.33530346 36.99739647 196.59679955 41.10196487 193.85520935 45.20449829 C191.97962323 48.01131719 190.10514181 50.81887306 188.23071289 53.62646484 C187.28027332 55.04958816 186.32942266 56.47243702 185.37817383 57.89501953 C180.31297429 65.4707812 175.28157262 73.05878863 170.4152832 80.76464844 C168.7126573 83.45383987 166.96131476 86.1072963 165.1875 88.75 C164.52234375 89.74386719 163.8571875 90.73773438 163.171875 91.76171875 C162.45515625 92.83035156 161.7384375 93.89898437 161 95 C159.31073771 97.51965807 157.62368296 100.04078044 155.9375 102.5625 C155.55037842 103.1390332 155.16325684 103.71556641 154.7644043 104.30957031 C152.38158546 107.87364521 150.06237031 111.47257474 147.77294922 115.09741211 C144.28461827 120.58482841 140.68795155 125.99076307 137.04296875 131.375 C136.41393143 132.30675049 135.7848941 133.23850098 135.13679504 134.19848633 C133.15506685 137.13325256 131.17133604 140.06665833 129.1875 143 C127.83905621 144.99600154 126.49074778 146.99209454 125.14257812 148.98828125 C122.1944386 153.35331526 119.24499762 157.71746662 116.2943573 162.08081055 C115.19089676 163.7169506 114.09468358 165.35797463 113 167 C108.58282753 165.49589291 106.75568008 162.08023944 104.3828125 158.32421875 C103.49537479 156.95605033 102.60767185 155.5880539 101.71972656 154.22021484 C101.2687561 153.51862244 100.81778564 152.81703003 100.35314941 152.09417725 C98.24829507 148.83663744 96.08795159 145.61681922 93.9296875 142.39453125 C93.08693883 141.13105993 92.24449146 139.86738759 91.40234375 138.60351562 C90.98581543 137.97872314 90.56928711 137.35393066 90.14013672 136.71020508 C70.35131836 107.02697754 70.35131836 107.02697754 50.5625 77.34375 C50.14202393 76.71307617 49.72154785 76.08240234 49.28833008 75.43261719 C48.43124616 74.1469101 47.57431192 72.86110321 46.7175293 71.57519531 C44.75915961 68.63632138 42.79836511 65.69918254 40.83203125 62.765625 C37.64258656 58.00304995 34.49377567 53.22429073 31.4375 48.375 C29.21001423 44.84941027 26.91017379 41.40322981 24.5 38 C21.50757393 33.77344699 18.71693438 29.44981306 15.9609375 25.06640625 C13.22843373 20.79346708 10.39744326 16.5879831 7.55151367 12.38989258 C7.14908447 11.79200928 6.74665527 11.19412598 6.33203125 10.578125 C5.97858643 10.05637695 5.6251416 9.53462891 5.26098633 8.99707031 C3.40381221 6.05579552 1.71326964 3.02726512 0 0 Z " fill="#9E68D9" transform="translate(20,65)"/>
<path d="M0 0 C4.7687841 -0.12375079 9.53663077 -0.21440646 14.30664062 -0.2746582 C15.92855105 -0.29977772 17.55034854 -0.33388028 19.171875 -0.37719727 C21.50549171 -0.43796853 23.83761048 -0.46623294 26.171875 -0.48828125 C26.89493835 -0.51408768 27.61800171 -0.5398941 28.36297607 -0.56648254 C32.07699143 -0.56854399 33.63871134 -0.35538265 36.32983398 2.29174805 C37.15656616 3.63233276 37.15656616 3.63233276 38 5 C38.66962769 5.96703857 38.66962769 5.96703857 39.3527832 6.95361328 C39.94579224 7.87762939 39.94579224 7.87762939 40.55078125 8.8203125 C40.9981665 9.51463379 41.44555176 10.20895508 41.90649414 10.92431641 C42.60246704 12.01365479 42.60246704 12.01365479 43.3125 13.125 C43.80032959 13.88345215 44.28815918 14.6419043 44.79077148 15.42333984 C47.39751449 19.48038301 49.98464771 23.54953828 52.5625 27.625 C55.28475246 31.92329336 58.10091979 36.15190835 60.9375 40.375 C65.47967854 47.14014968 69.78864974 54.02421591 74 61 C77.92934574 57.47555171 80.5190226 53.36038458 83.3125 48.9375 C83.79887939 48.17671143 84.28525879 47.41592285 84.78637695 46.63208008 C86.19615711 44.42466422 87.59929227 42.2131808 89 40 C90.2290558 38.06242967 91.45820304 36.12491733 92.6875 34.1875 C93.23277344 33.32769531 93.77804688 32.46789062 94.33984375 31.58203125 C96.77018712 27.8021325 99.2532539 24.06971134 101.8671875 20.4140625 C103.59454488 17.86253101 104.68095389 15.34413958 105.7578125 12.4609375 C107.95458503 7.26432321 109.96516275 2.89995106 115 0 C126.1218289 -2.18913505 137.78597991 -1.02672071 149 0 C147.489294 3.97506074 145.70338762 6.97931216 143.125 10.375 C140.47943676 13.865534 138.17469226 17.36653998 136.04052734 21.19238281 C134.25837546 24.28835948 132.24930637 27.22894822 130.25 30.1875 C129.81099365 30.84186035 129.3719873 31.4962207 128.91967773 32.17041016 C127.61505479 34.11491621 126.30773741 36.05758769 125 38 C120.4801823 44.73219501 116.01992282 51.49831165 111.625 58.3125 C106.89727763 65.64136662 102.08891892 72.91223205 97.23388672 80.15722656 C95.56897345 82.64372545 93.90919393 85.13362444 92.25048828 87.62426758 C91.42353956 88.86469066 90.59511236 90.1041295 89.76513672 91.3425293 C87.56165318 94.63384702 85.38956947 97.94154786 83.25390625 101.27734375 C82.80337891 101.9734375 82.35285156 102.66953125 81.88867188 103.38671875 C81.02074062 104.72888048 80.16100408 106.07638587 79.31054688 107.4296875 C78.28476307 109.0065122 77.15050587 110.51173094 76 112 C75.01 112 74.02 112 73 112 C71.77661133 110.62988281 71.77661133 110.62988281 70.58203125 108.703125 C70.13666016 107.99800781 69.69128906 107.29289062 69.23242188 106.56640625 C68.76384766 105.80199219 68.29527344 105.03757812 67.8125 104.25 C66.81970277 102.67143935 65.82621033 101.09331572 64.83203125 99.515625 C64.34686035 98.73896484 63.86168945 97.96230469 63.36181641 97.16210938 C61.62589776 94.40605065 59.82146349 91.7001405 58 89 C54.82363459 84.26138141 51.71600253 79.48194798 48.625 74.6875 C44.01773739 67.54785169 39.33629906 60.4624974 34.60839844 53.40234375 C15.81823116 25.33688442 15.81823116 25.33688442 8.625 14.25 C8.20355713 13.60240723 7.78211426 12.95481445 7.34790039 12.28759766 C6.95723389 11.68222168 6.56656738 11.0768457 6.1640625 10.453125 C5.67607178 9.69757324 5.67607178 9.69757324 5.17822266 8.92675781 C3.38269407 5.99051422 1.69934062 2.99286855 0 0 Z " fill="#23202D" transform="translate(57,43)"/>
<path d="M0 0 C1.61056569 0.04517875 3.22125255 0.08623749 4.83203125 0.12304688 C8.76602423 0.22190196 12.69418014 0.37696429 16.625 0.5625 C13.62496705 6.11157541 10.48901446 11.4746986 6.9375 16.6875 C6.1625399 17.83578871 5.38781475 18.984236 4.61328125 20.1328125 C3.94510376 21.12087891 3.94510376 21.12087891 3.26342773 22.12890625 C0.72787418 25.89502127 -1.78684444 29.67500928 -4.30395508 33.45346069 C-7.03969654 37.55989647 -9.77820045 41.66446487 -12.51979065 45.76699829 C-14.39537677 48.57381719 -16.26985819 51.38137306 -18.14428711 54.18896484 C-19.09472668 55.61208816 -20.04557734 57.03493702 -20.99682617 58.45751953 C-26.06202571 66.0332812 -31.09342738 73.62128863 -35.9597168 81.32714844 C-37.6623427 84.01633987 -39.41368524 86.6697963 -41.1875 89.3125 C-41.85265625 90.30636719 -42.5178125 91.30023438 -43.203125 92.32421875 C-43.91984375 93.39285156 -44.6365625 94.46148437 -45.375 95.5625 C-47.06426229 98.08215807 -48.75131704 100.60328044 -50.4375 103.125 C-50.82462158 103.7015332 -51.21174316 104.27806641 -51.6105957 104.87207031 C-53.99341454 108.43614521 -56.31262969 112.03507474 -58.60205078 115.65991211 C-62.09038173 121.14732841 -65.68704845 126.55326307 -69.33203125 131.9375 C-69.96106857 132.86925049 -70.5901059 133.80100098 -71.23820496 134.76098633 C-73.21993315 137.69575256 -75.20366396 140.62915833 -77.1875 143.5625 C-78.53594379 145.55850154 -79.88425222 147.55459454 -81.23242188 149.55078125 C-84.1805614 153.91581526 -87.13000238 158.27996662 -90.0806427 162.64331055 C-91.18410324 164.2794506 -92.28031642 165.92047463 -93.375 167.5625 C-94.035 167.5625 -94.695 167.5625 -95.375 167.5625 C-95.48684439 160.73405637 -95.51808359 153.90841566 -95.49707031 147.07910156 C-95.49899964 144.76326203 -95.51841107 142.44736071 -95.55664062 140.13183594 C-95.78391471 125.52316275 -95.05044538 114.8892368 -85.70751953 103.26853943 C-83.35330488 100.25441248 -81.33176429 97.01750118 -79.25 93.8125 C-78.41893749 92.57009259 -77.58590035 91.32900139 -76.75 90.08984375 C-74.57291852 86.8584579 -72.40936342 83.61826264 -70.25 80.375 C-68.3798386 77.56790626 -66.50864764 74.76162601 -64.62890625 71.9609375 C-60.02817824 65.09447462 -55.50945178 58.17666535 -51 51.25 C-45.57034138 42.91102281 -40.10282652 34.60042038 -34.56201172 26.33496094 C-32.41084341 23.12280916 -30.2685945 19.9047087 -28.125 16.6875 C-26.95721477 14.93570104 -25.79189044 13.18824321 -24.57861328 11.4675293 C-23.28621658 9.5378453 -23.28621658 9.5378453 -22.35498047 7.13598633 C-17.85416249 -2.25040591 -9.00489527 -0.43767425 0 0 Z " fill="#713AA6" transform="translate(226.375,64.4375)"/>
<path d="M0 0 C0.33 0 0.66 0 1 0 C1.33 16.17 1.66 32.34 2 49 C0.515 49.495 0.515 49.495 -1 50 C-0.67 33.5 -0.34 17 0 0 Z " fill="#7942B0" transform="translate(132,182)"/>
<path d="M0 0 C0.80867674 2.33733665 1.12401827 3.61044569 0.36328125 6 C-1.6723672 9.87454278 -3.51767216 13.21413773 -7 16 C-7.66 16 -8.32 16 -9 16 C-7.56691865 12.04093183 -5.66858051 8.71281819 -3.375 5.1875 C-2.74335938 4.21167969 -2.11171875 3.23585937 -1.4609375 2.23046875 C-0.73777344 1.12638672 -0.73777344 1.12638672 0 0 Z " fill="#764BA5" transform="translate(159,140)"/>
<path d="M0 0 C3.82946843 1.45255699 5.12050295 3.42895561 7 7 C7.99 6.67 8.98 6.34 10 6 C10 7.98 10 9.96 10 12 C9.01 12 8.02 12 7 12 C5.17578125 9.62890625 5.17578125 9.62890625 3.3125 6.5625 C2.68988281 5.55316406 2.06726563 4.54382813 1.42578125 3.50390625 C0 1 0 1 0 0 Z " fill="#9B6ACE" transform="translate(122,218)"/>
<path d="M0 0 C0.33 0.99 0.66 1.98 1 3 C-0.1796875 5.15625 -0.1796875 5.15625 -1.875 7.5 C-3.73229619 10.09157608 -4.98483238 11.95449714 -6 15 C-6.66 15 -7.32 15 -8 15 C-8.66 16.32 -9.32 17.64 -10 19 C-10.66 18.67 -11.32 18.34 -12 18 C-11.55269531 17.3709375 -11.10539063 16.741875 -10.64453125 16.09375 C-6.92163731 10.82295773 -3.36489028 5.5061841 0 0 Z " fill="#77509F" transform="translate(179,110)"/>
<path d="M0 0 C0.99 0.33 1.98 0.66 3 1 C0.03 4.96 0.03 4.96 -3 9 C-4.32 7.68 -5.64 6.36 -7 5 C-6.34 3.68 -5.68 2.36 -5 1 C-4.67 1.66 -4.34 2.32 -4 3 C-2.68 3 -1.36 3 0 3 C0 2.01 0 1.02 0 0 Z " fill="#312F3A" transform="translate(135,147)"/>
<path d="M0 0 C2.52197266 -0.34057617 2.52197266 -0.34057617 5.6640625 -0.29296875 C6.78554687 -0.28330078 7.90703125 -0.27363281 9.0625 -0.26367188 C10.238125 -0.23853516 11.41375 -0.21339844 12.625 -0.1875 C14.40003906 -0.16719727 14.40003906 -0.16719727 16.2109375 -0.14648438 C19.14107539 -0.11103916 22.07031459 -0.06162769 25 0 C25 0.33 25 0.66 25 1 C17.41 1 9.82 1 2 1 C1.67 1.99 1.34 2.98 1 4 C0.01 3.67 -0.98 3.34 -2 3 C-1.34 2.01 -0.68 1.02 0 0 Z " fill="#6D439B" transform="translate(209,65)"/>
<path d="M0 0 C3.85259708 1.28419903 4.08926942 2.48425572 6 6 C6.36738281 6.5878125 6.73476562 7.175625 7.11328125 7.78125 C8.1565751 9.47346545 9.08489976 11.23516382 10 13 C9.67 13.99 9.34 14.98 9 16 C7.49445366 13.71180854 5.99542957 11.41978831 4.5 9.125 C4.07074219 8.47402344 3.64148438 7.82304687 3.19921875 7.15234375 C0 2.2265625 0 2.2265625 0 0 Z " fill="#9E78CA" transform="translate(75,147)"/>
<path d="M0 0 C0.66 0.33 1.32 0.66 2 1 C2 2.32 2 3.64 2 5 C2.99 5.33 3.98 5.66 5 6 C4.34 7.32 3.68 8.64 3 10 C-1.06153846 4.58461538 -1.06153846 4.58461538 -0.75 1.625 C-0.5025 1.08875 -0.255 0.5525 0 0 Z " fill="#9A6BCC" transform="translate(39,89)"/>
<path d="M0 0 C2.97 0 5.94 0 9 0 C8.01 1.98 7.02 3.96 6 6 C4 5 4 5 3 2 C2.01 1.34 1.02 0.68 0 0 Z " fill="#7649A9" transform="translate(234,65)"/>
<path d="M0 0 C4 4.75 4 4.75 4 7 C3.01 7.33 2.02 7.66 1 8 C0.34 7.67 -0.32 7.34 -1 7 C-0.67 4.69 -0.34 2.38 0 0 Z " fill="#9D72CF" transform="translate(110,150)"/>
<path d="M0 0 C0.99 0 1.98 0 3 0 C3 0.66 3 1.32 3 2 C3.66 2 4.32 2 5 2 C7.125 6.625 7.125 6.625 6 10 C4.99723227 8.52270825 3.99785546 7.04311423 3 5.5625 C2.443125 4.73878906 1.88625 3.91507813 1.3125 3.06640625 C0 1 0 1 0 0 Z " fill="#A17AD0" transform="translate(65,133)"/>
<path d="M0 0 C0.99 0.33 1.98 0.66 3 1 C1.02 3.97 -0.96 6.94 -3 10 C-4 6 -4 6 -2.0625 2.75 C-1.381875 1.8425 -0.70125 0.935 0 0 Z " fill="#7A50A3" transform="translate(206,117)"/>
<path d="M0 0 C3.42298577 1.14099526 4.14758766 2.00085621 6 5 C6 5.99 6 6.98 6 8 C6.66 8 7.32 8 8 8 C7.67 8.99 7.34 9.98 7 11 C5.83051998 9.35616456 4.6644855 7.70987731 3.5 6.0625 C2.8503125 5.14597656 2.200625 4.22945313 1.53125 3.28515625 C0 1 0 1 0 0 Z " fill="#9C73C7" transform="translate(44,101)"/>
<path d="M0 0 C3.39417765 3.12621626 5.6062718 5.56541027 7 10 C6.01 10 5.02 10 4 10 C3.34 7.69 2.68 5.38 2 3 C1.34 3 0.68 3 0 3 C0 2.01 0 1.02 0 0 Z " fill="#9A6FC7" transform="translate(70,91)"/>
<path d="M0 0 C2.79872437 2.52788007 4.45773019 4.20411134 5 8 C3.68 8 2.36 8 1 8 C0 2.25 0 2.25 0 0 Z " fill="#35333E" transform="translate(125,96)"/>
<path d="M0 0 C2.38672669 2.96283313 4.7353371 5.94270509 7 9 C6.67 9.66 6.34 10.32 6 11 C5.38125 10.195625 4.7625 9.39125 4.125 8.5625 C2.25835959 5.96125481 2.25835959 5.96125481 0 5 C0 3.35 0 1.7 0 0 Z " fill="#A57FCF" transform="translate(63,79)"/>
<path d="M0 0 C0.66 0 1.32 0 2 0 C0.8141763 3.37503669 -0.27573689 5.64722731 -3 8 C-3.33 6.35 -3.66 4.7 -4 3 C-3.01 2.67 -2.02 2.34 -1 2 C-0.67 1.34 -0.34 0.68 0 0 Z " fill="#794EA2" transform="translate(234,75)"/>
<path d="M0 0 C1.37562854 1.28965176 2.70766393 2.62689293 4 4 C4 4.66 4 5.32 4 6 C2.02 6.99 2.02 6.99 0 8 C0 5.36 0 2.72 0 0 Z " fill="#2B2836" transform="translate(111,75)"/>
<path d="M0 0 C0.99 0 1.98 0 3 0 C1.8141763 3.37503669 0.72426311 5.64722731 -2 8 C-2.33 6.35 -2.66 4.7 -3 3 C-2.01 2.34 -1.02 1.68 0 1 C0 0.67 0 0.34 0 0 Z " fill="#7B4FA5" transform="translate(161,184)"/>
<path d="M0 0 C0.66 0.33 1.32 0.66 2 1 C0.02 3.97 0.02 3.97 -2 7 C-2.33 6.01 -2.66 5.02 -3 4 C-3.66 3.67 -4.32 3.34 -5 3 C-2.625 1.4375 -2.625 1.4375 0 0 Z " fill="#7A4EA3" transform="translate(189,144)"/>
<path d="M0 0 C2.49415272 0.99766109 3.78740335 1.68616685 5.3125 3.9375 C6 6 6 6 5 9 C4.16396622 7.68921847 3.3312426 6.37632511 2.5 5.0625 C2.0359375 4.33160156 1.571875 3.60070312 1.09375 2.84765625 C0 1 0 1 0 0 Z " fill="#9F77C9" transform="translate(122,218)"/>
<path d="M0 0 C0.66 0 1.32 0 2 0 C1.1654738 2.50357861 0.20628008 4.66785852 -1 7 C-1.66 6.67 -2.32 6.34 -3 6 C-1.125 1.125 -1.125 1.125 0 0 Z " fill="#6D3F9A" transform="translate(138,173)"/>
<path d="M0 0 C4.52346473 2.26173236 5.05828666 3.53405933 7 8 C6.01 8.495 6.01 8.495 5 9 C3.35 6.03 1.7 3.06 0 0 Z " fill="#9E76CE" transform="translate(85,163)"/>
<path d="M0 0 C3.08089673 2.77280706 4.68775452 5.06326356 6 9 C5.01 8.34 4.02 7.68 3 7 C3 6.34 3 5.68 3 5 C2.01 4.67 1.02 4.34 0 4 C0 2.68 0 1.36 0 0 Z " fill="#A27CCD" transform="translate(89,119)"/>
</svg>
